<svg width="12" height="12" viewBox="0 0 12 12" fill="none" xmlns="http://www.w3.org/2000/svg">
<g id="call">
<path id="icon/communication/call_24px" fill-rule="evenodd" clip-rule="evenodd" d="M2 1.5H3.75C4.025 1.5 4.25 1.725 4.25 2C4.25 2.625 4.35 3.225 4.535 3.785C4.59 3.96 4.55 4.155 4.41 4.295L3.31 5.395C4.03 6.81 5.19 7.965 6.605 8.69L7.705 7.59C7.805 7.495 7.93 7.445 8.06 7.445C8.11 7.445 8.165 7.45 8.215 7.47C8.775 7.655 9.38 7.755 10 7.755C10.275 7.755 10.5 7.98 10.5 8.255V10C10.5 10.275 10.275 10.5 10 10.5C5.305 10.5 1.5 6.695 1.5 2C1.5 1.725 1.725 1.5 2 1.5ZM3.27 2.49998C3.3 2.94498 3.375 3.37998 3.495 3.79498L2.895 4.39498C2.69 3.79498 2.56 3.15998 2.515 2.49998H3.27ZM8.2 8.50997C8.625 8.62997 9.06 8.70497 9.5 8.73497V9.47997C8.84 9.43497 8.205 9.30497 7.6 9.10497L8.2 8.50997Z" fill="#EBEBEB"/>
</g>
</svg>
