<svg width="132" height="67" viewBox="0 0 132 67" fill="none" xmlns="http://www.w3.org/2000/svg">
<path d="M11.0234 40L13.5625 27.0312L17.7031 36.4062L21.9922 27.0312L24.2734 40H22.4062L21.2422 32.7188L17.6719 40.5547L14.2031 32.7109L12.9062 40H11.0234ZM28.6344 33.9141C28.6344 32.2161 29.2568 30.7578 30.5016 29.5391C31.7411 28.3203 33.2307 27.7109 34.9703 27.7109C36.6891 27.7109 38.163 28.3255 39.3922 29.5547C40.6266 30.7839 41.2437 32.2604 41.2437 33.9844C41.2437 35.7188 40.624 37.1901 39.3844 38.3984C38.1396 39.612 36.637 40.2188 34.8766 40.2188C33.3193 40.2188 31.9208 39.6797 30.6812 38.6016C29.3167 37.4089 28.6344 35.8464 28.6344 33.9141ZM30.4703 33.9375C30.4703 35.2708 30.9182 36.3672 31.8141 37.2266C32.7047 38.0859 33.7333 38.5156 34.9 38.5156C36.1656 38.5156 37.2333 38.0781 38.1031 37.2031C38.9729 36.3177 39.4078 35.2396 39.4078 33.9688C39.4078 32.6823 38.9781 31.6042 38.1187 30.7344C37.2646 29.8594 36.2073 29.4219 34.9469 29.4219C33.6917 29.4219 32.6318 29.8594 31.7672 30.7344C30.9026 31.599 30.4703 32.6667 30.4703 33.9375ZM45.3312 33.9141C45.3312 32.2161 45.9536 30.7578 47.1984 29.5391C48.438 28.3203 49.9276 27.7109 51.6672 27.7109C53.3859 27.7109 54.8599 28.3255 56.0891 29.5547C57.3234 30.7839 57.9406 32.2604 57.9406 33.9844C57.9406 35.7188 57.3208 37.1901 56.0812 38.3984C54.8365 39.612 53.3339 40.2188 51.5734 40.2188C50.0161 40.2188 48.6177 39.6797 47.3781 38.6016C46.0135 37.4089 45.3312 35.8464 45.3312 33.9141ZM47.1672 33.9375C47.1672 35.2708 47.6151 36.3672 48.5109 37.2266C49.4016 38.0859 50.4302 38.5156 51.5969 38.5156C52.8625 38.5156 53.9302 38.0781 54.8 37.2031C55.6698 36.3177 56.1047 35.2396 56.1047 33.9688C56.1047 32.6823 55.675 31.6042 54.8156 30.7344C53.9615 29.8594 52.9042 29.4219 51.6437 29.4219C50.3885 29.4219 49.3286 29.8594 48.4641 30.7344C47.5995 31.599 47.1672 32.6667 47.1672 33.9375ZM62.6297 40V27.1172L71.4266 36.3203V27.9375H73.2469V40.7344L64.45 31.5547V40H62.6297ZM80.3656 27.9375V38.2891H83.9125V40H78.5453V27.9375H80.3656ZM89.8594 27.9375V40H88.0391V27.9375H89.8594ZM101.361 33.7188H106.345V34.1172C106.345 35.0234 106.239 35.8255 106.025 36.5234C105.817 37.1693 105.465 37.7734 104.97 38.3359C103.851 39.5964 102.426 40.2266 100.697 40.2266C99.0094 40.2266 97.5641 39.6172 96.3609 38.3984C95.1578 37.1745 94.5563 35.7057 94.5563 33.9922C94.5563 32.2422 95.1682 30.7578 96.3922 29.5391C97.6161 28.3151 99.1057 27.7031 100.861 27.7031C101.804 27.7031 102.684 27.8958 103.502 28.2812C104.283 28.6667 105.051 29.2917 105.806 30.1562L104.509 31.3984C103.52 30.0807 102.314 29.4219 100.892 29.4219C99.6161 29.4219 98.5458 29.862 97.6813 30.7422C96.8167 31.6068 96.3844 32.6901 96.3844 33.9922C96.3844 35.3359 96.8661 36.4427 97.8297 37.3125C98.7307 38.1198 99.7073 38.5234 100.759 38.5234C101.655 38.5234 102.46 38.2214 103.173 37.6172C103.887 37.0078 104.285 36.2786 104.369 35.4297H101.361V33.7188ZM112.863 32.6562H118.066V27.9375H119.886V40H118.066V34.3672H112.863V40H111.042V27.9375H112.863V32.6562ZM128.505 29.6484V40H126.684V29.6484H123.911V27.9375H131.27V29.6484H128.505Z" fill="white" fill-opacity="0.95"/>
<path d="M98.1797 48.293V49.3711C97.6536 48.931 97.1094 48.7109 96.5469 48.7109C95.9271 48.7109 95.4049 48.9336 94.9805 49.3789C94.5534 49.8216 94.3398 50.3633 94.3398 51.0039C94.3398 51.6367 94.5534 52.1706 94.9805 52.6055C95.4076 53.0404 95.931 53.2578 96.5508 53.2578C96.8711 53.2578 97.1432 53.2057 97.3672 53.1016C97.4922 53.0495 97.6211 52.9792 97.7539 52.8906C97.8893 52.8021 98.0312 52.6953 98.1797 52.5703V53.668C97.6589 53.9622 97.112 54.1094 96.5391 54.1094C95.6771 54.1094 94.9414 53.8086 94.332 53.207C93.7253 52.6003 93.4219 51.8685 93.4219 51.0117C93.4219 50.2435 93.6758 49.5586 94.1836 48.957C94.8086 48.2201 95.6172 47.8516 96.6094 47.8516C97.151 47.8516 97.6745 47.9987 98.1797 48.293ZM101.442 47.9688V54H100.532V47.9688H101.442ZM104.091 54V47.5586L108.49 52.1602V47.9688H109.4V54.3672L105.002 49.7773V54H104.091ZM115.377 48.8242H112.959V50.2734H115.307V51.1289H112.959V53.1445H115.377V54H112.049V47.9688H115.377V48.8242ZM117.562 54L118.831 47.5156L120.902 52.2031L123.046 47.5156L124.187 54H123.253L122.671 50.3594L120.886 54.2773L119.152 50.3555L118.503 54H117.562ZM130.211 52.5352H127.629L126.957 54H125.977L128.961 47.5898L131.84 54H130.844L130.211 52.5352ZM129.84 51.6797L128.945 49.6289L128.008 51.6797H129.84Z" fill="white" fill-opacity="0.95"/>
<path d="M67 33.5C67 52.0015 52.0015 67 33.5 67C14.9985 67 0 52.0015 0 33.5C0 14.9985 14.9985 0 33.5 0C52.0015 0 67 14.9985 67 33.5Z" fill="white" fill-opacity="0.95"/>
<mask id="mask0" mask-type="alpha" maskUnits="userSpaceOnUse" x="0" y="0" width="67" height="67">
<path d="M67 33.5C67 52.0015 52.0015 67 33.5 67C14.9985 67 0 52.0015 0 33.5C0 14.9985 14.9985 0 33.5 0C52.0015 0 67 14.9985 67 33.5Z" fill="#C4C4C4"/>
</mask>
<g mask="url(#mask0)">
<path d="M11.0234 40L13.5625 27.0312L17.7031 36.4062L21.9922 27.0312L24.2734 40H22.4062L21.2422 32.7188L17.6719 40.5547L14.2031 32.7109L12.9062 40H11.0234ZM28.6344 33.9141C28.6344 32.2161 29.2568 30.7578 30.5016 29.5391C31.7411 28.3203 33.2307 27.7109 34.9703 27.7109C36.6891 27.7109 38.163 28.3255 39.3922 29.5547C40.6266 30.7839 41.2437 32.2604 41.2437 33.9844C41.2437 35.7188 40.624 37.1901 39.3844 38.3984C38.1396 39.612 36.637 40.2188 34.8766 40.2188C33.3193 40.2188 31.9208 39.6797 30.6812 38.6016C29.3167 37.4089 28.6344 35.8464 28.6344 33.9141ZM30.4703 33.9375C30.4703 35.2708 30.9182 36.3672 31.8141 37.2266C32.7047 38.0859 33.7333 38.5156 34.9 38.5156C36.1656 38.5156 37.2333 38.0781 38.1031 37.2031C38.9729 36.3177 39.4078 35.2396 39.4078 33.9688C39.4078 32.6823 38.9781 31.6042 38.1187 30.7344C37.2646 29.8594 36.2073 29.4219 34.9469 29.4219C33.6917 29.4219 32.6318 29.8594 31.7672 30.7344C30.9026 31.599 30.4703 32.6667 30.4703 33.9375ZM45.3312 33.9141C45.3312 32.2161 45.9536 30.7578 47.1984 29.5391C48.438 28.3203 49.9276 27.7109 51.6672 27.7109C53.3859 27.7109 54.8599 28.3255 56.0891 29.5547C57.3234 30.7839 57.9406 32.2604 57.9406 33.9844C57.9406 35.7188 57.3208 37.1901 56.0812 38.3984C54.8365 39.612 53.3339 40.2188 51.5734 40.2188C50.0161 40.2188 48.6177 39.6797 47.3781 38.6016C46.0135 37.4089 45.3312 35.8464 45.3312 33.9141ZM47.1672 33.9375C47.1672 35.2708 47.6151 36.3672 48.5109 37.2266C49.4016 38.0859 50.4302 38.5156 51.5969 38.5156C52.8625 38.5156 53.9302 38.0781 54.8 37.2031C55.6698 36.3177 56.1047 35.2396 56.1047 33.9688C56.1047 32.6823 55.675 31.6042 54.8156 30.7344C53.9615 29.8594 52.9042 29.4219 51.6437 29.4219C50.3885 29.4219 49.3286 29.8594 48.4641 30.7344C47.5995 31.599 47.1672 32.6667 47.1672 33.9375ZM62.6297 40V27.1172L71.4266 36.3203V27.9375H73.2469V40.7344L64.45 31.5547V40H62.6297ZM80.3656 27.9375V38.2891H83.9125V40H78.5453V27.9375H80.3656ZM89.8594 27.9375V40H88.0391V27.9375H89.8594ZM101.361 33.7188H106.345V34.1172C106.345 35.0234 106.239 35.8255 106.025 36.5234C105.817 37.1693 105.465 37.7734 104.97 38.3359C103.851 39.5964 102.426 40.2266 100.697 40.2266C99.0094 40.2266 97.5641 39.6172 96.3609 38.3984C95.1578 37.1745 94.5563 35.7057 94.5563 33.9922C94.5563 32.2422 95.1682 30.7578 96.3922 29.5391C97.6161 28.3151 99.1057 27.7031 100.861 27.7031C101.804 27.7031 102.684 27.8958 103.502 28.2812C104.283 28.6667 105.051 29.2917 105.806 30.1562L104.509 31.3984C103.52 30.0807 102.314 29.4219 100.892 29.4219C99.6161 29.4219 98.5458 29.862 97.6813 30.7422C96.8167 31.6068 96.3844 32.6901 96.3844 33.9922C96.3844 35.3359 96.8661 36.4427 97.8297 37.3125C98.7307 38.1198 99.7073 38.5234 100.759 38.5234C101.655 38.5234 102.46 38.2214 103.173 37.6172C103.887 37.0078 104.285 36.2786 104.369 35.4297H101.361V33.7188ZM112.863 32.6562H118.066V27.9375H119.886V40H118.066V34.3672H112.863V40H111.042V27.9375H112.863V32.6562ZM128.505 29.6484V40H126.684V29.6484H123.911V27.9375H131.27V29.6484H128.505Z" fill="black"/>
</g>
</svg>
